PathFileType	4	(X/Y/Z)	G:\マイドライブ\biomec\experimentalData\240725\CJ1.trc
DataRate	CameraRate	NumFrames	NumMarkers	Units	OrigDataRate	OrigDataStartFrame	OrigNumFrames
200.00	200.00	      4	52	mm	200.00	1	      1582
Frame#	Time	handR			wrRI			wrRO			elbRI			elbRO			shRF			shRU			shRB			handL			wrLI			wrLO			elbLI			elbLO			shLF			shLU			shLB			toeR			baRI			baRO			heelR			anRI			anRO			knRI			knRO			troR			toeL			baLI			baLO			heelL			anLI			anLO			knLI			knLO			troL			head			earR			earL			clav			c7			ribR			ribL			xiph			ASISR			ASISL			PSISR			PSISL			t8			t11			L1			L3			LS			COX			
		X1	Y1	Z1	X2	Y2	Z2	X3	Y3	Z3	X4	Y4	Z4	X5	Y5	Z5	X6	Y6	Z6	X7	Y7	Z7	X8	Y8	Z8	X9	Y9	Z9	X10	Y10	Z10	X11	Y11	Z11	X12	Y12	Z12	X13	Y13	Z13	X14	Y14	Z14	X15	Y15	Z15	X16	Y16	Z16	X17	Y17	Z17	X18	Y18	Z18	X19	Y19	Z19	X20	Y20	Z20	X21	Y21	Z21	X22	Y22	Z22	X23	Y23	Z23	X24	Y24	Z24	X25	Y25	Z25	X26	Y26	Z26	X27	Y27	Z27	X28	Y28	Z28	X29	Y29	Z29	X30	Y30	Z30	X31	Y31	Z31	X32	Y32	Z32	X33	Y33	Z33	X34	Y34	Z34	X35	Y35	Z35	X36	Y36	Z36	X37	Y37	Z37	X38	Y38	Z38	X39	Y39	Z39	X40	Y40	Z40	X41	Y41	Z41	X42	Y42	Z42	X43	Y43	Z43	X44	Y44	Z44	X45	Y45	Z45	X46	Y46	Z46	X47	Y47	Z47	X48	Y48	Z48	X49	Y49	Z49	X50	Y50	Z50	X51	Y51	Z51	X52	Y52	Z52	

1	0.000	263.67047	1468.30945	803.72400	269.76016	1525.76685	877.90845	311.20178	1470.03540	892.78857	381.17578	1578.47791	1098.02063	309.05032	1588.59583	1105.90735	354.18378	1517.30615	1399.36292	320.85181	1619.15369	1380.08911	312.75449	1568.54224	1418.07971	725.76318	1454.55042	785.70099	735.67206	1514.13989	860.84399	684.47394	1458.31812	866.30383	661.49762	1573.83838	1083.36951	736.04108	1565.06030	1087.31885	674.11359	1505.12866	1386.49866	720.22375	1553.13550	1403.39221	701.46021	1615.38904	1361.51563	390.05273	1407.35803	54.38358	433.33279	1491.35632	38.27861	310.00470	1507.97888	47.57582	390.27466	1693.41956	43.78335	428.51492	1611.14648	117.23546	334.55026	1623.99963	106.17113	438.51892	1587.15173	476.56854	336.04477	1563.70361	478.58459	336.58298	1514.55334	874.61475	657.40198	1392.15137	57.62882	600.70972	1458.25439	55.69864	709.02380	1497.80334	53.50266	625.41522	1676.98352	42.53405	592.31879	1583.18445	133.73328	676.89288	1615.99353	110.67428	573.64044	1584.15137	478.64178	680.97314	1583.69824	488.48703	677.73810	1534.04395	867.62091	526.25403	1576.59546	1708.96558	437.91461	1493.37891	1561.49768	594.87292	1486.95618	1555.86621	515.93066	1491.93103	1391.79626	523.07886	1611.69006	1470.95691	400.57678	1491.31042	1104.18738	627.81500	1494.03589	1098.04065	514.44269	1458.37256	1236.79285	402.99310	1454.53259	966.36633	624.02368	1468.56360	972.90656	446.19235	1629.93530	999.20441	567.30804	1632.18823	1001.94403	518.56757	1675.91418	1258.10693	514.12775	1648.74438	1133.94055	514.97058	1632.00879	1077.66541	508.60397	1631.79089	1031.50366	508.10062	1642.02026	993.36810	506.11084	1668.54932	893.48926	
2	0.005	263.72479	1468.11646	803.79297	269.83652	1525.61096	877.93939	310.81906	1470.06104	893.18164	381.18198	1577.97498	1098.15955	309.09656	1588.46387	1105.92700	354.23132	1517.21350	1399.36853	320.90524	1619.07886	1380.11755	312.81174	1568.44702	1418.12354	725.74713	1454.36353	785.68793	735.70050	1514.05652	860.83521	684.45929	1458.20093	866.29620	661.48444	1573.69873	1083.30762	735.90308	1564.79541	1087.44324	674.15723	1504.94104	1386.50049	720.26306	1552.99463	1403.40918	701.47284	1615.29028	1361.47119	390.05811	1407.34583	54.38334	433.32938	1491.34778	38.28441	309.99710	1507.98804	47.59519	390.27942	1693.43030	43.75656	428.50763	1611.11230	117.21516	334.58014	1624.01086	106.14553	438.49673	1587.09155	476.53101	336.04144	1563.69299	478.57831	336.68192	1514.40820	874.55597	657.24933	1392.26379	57.49120	600.71558	1458.25342	55.68799	709.01953	1497.82056	53.48974	625.41870	1676.97302	42.51603	592.32788	1583.18115	133.73193	676.91949	1615.95410	110.69086	573.64996	1584.08276	478.64462	680.99127	1583.64465	488.49646	677.78351	1533.98438	867.65436	526.34308	1576.45129	1708.98584	437.96146	1493.29517	1561.52759	594.92432	1486.82324	1555.84387	515.99860	1491.79224	1391.83252	523.09906	1611.59631	1470.94751	400.57074	1491.23987	1104.19128	627.84601	1493.91553	1098.03516	514.45068	1458.24548	1236.84570	403.00229	1454.47192	966.33282	624.04822	1468.45764	972.91193	446.19922	1629.87927	999.20020	567.34424	1632.09448	1001.96271	518.63239	1675.80359	1258.08423	514.18848	1648.66956	1133.94006	515.02454	1631.93921	1077.67554	508.64859	1631.71240	1031.48889	508.15472	1641.92273	993.38013	506.13428	1668.50073	893.51617	
3	0.010	263.77365	1467.92456	803.85809	269.89005	1525.44617	877.98700	311.18155	1469.81042	892.79089	381.29099	1578.16138	1098.09180	309.17023	1588.32715	1105.96008	354.27829	1517.11621	1399.41870	320.95938	1618.98950	1380.13904	312.86426	1568.36633	1418.13892	725.72754	1454.15234	785.68469	735.71307	1513.95398	860.83124	684.44153	1458.10059	866.28149	661.53778	1573.61499	1083.37268	736.39764	1564.77771	1087.35303	674.20380	1504.78174	1386.50525	720.36615	1552.80640	1403.38916	701.57867	1615.13562	1361.47302	390.04285	1407.35144	54.38444	433.32230	1491.37561	38.27354	310.00464	1507.97705	47.55539	390.27853	1693.41321	43.77778	428.51907	1611.09644	117.21473	334.59897	1624.00916	106.13907	438.52734	1587.04785	476.55673	336.04181	1563.66956	478.57501	336.62064	1514.42517	874.62048	657.25818	1392.24597	57.49223	600.70074	1458.23865	55.71513	709.01373	1497.81775	53.49174	625.41986	1676.97632	42.52957	592.33990	1583.18494	133.74913	676.90753	1615.97351	110.66072	573.68262	1584.03430	478.61322	681.01678	1583.54529	488.47647	677.83112	1533.92041	867.67236	526.47943	1576.28040	1708.97546	438.03604	1493.21509	1561.50842	594.99524	1486.63818	1555.83960	516.03558	1491.65796	1391.84558	523.19421	1611.49207	1470.98523	400.56061	1491.15454	1104.21411	627.84753	1493.81189	1098.01868	514.46252	1458.11157	1236.85669	403.00851	1454.43115	966.31805	624.00330	1468.38989	972.88324	446.21027	1629.82971	999.21716	567.40381	1631.87390	1001.97656	518.66095	1675.68750	1258.11414	514.23004	1648.57947	1133.94885	515.04260	1631.85986	1077.67590	508.68539	1631.64404	1031.48669	508.05698	1641.94446	993.49847	506.17142	1668.44910	893.51978	
4	0.015	263.81168	1467.72571	803.90857	269.98621	1525.26440	878.00067	310.86938	1469.74292	893.08954	381.32562	1577.68982	1098.20654	309.24225	1588.20044	1105.96338	354.34149	1517.02002	1399.42175	321.02597	1618.88696	1380.17834	312.89844	1568.25549	1418.16748	725.71558	1453.99780	785.65015	735.70380	1513.82031	860.82660	684.43359	1457.98071	866.28522	661.70532	1573.37756	1083.32007	736.10504	1564.68323	1087.33215	674.26300	1504.60767	1386.49609	720.33942	1552.72620	1403.39307	701.63947	1614.99780	1361.46497	390.04587	1407.34680	54.38605	433.33685	1491.36316	38.26780	309.99994	1507.99084	47.57781	390.30621	1693.41138	43.75457	428.52664	1611.18152	117.18263	334.61835	1623.98792	106.14185	438.54675	1586.98792	476.54321	336.07825	1563.65991	478.58795	334.52023	1518.78235	874.99475	657.40961	1392.14087	57.61713	600.71716	1458.23743	55.69370	709.02728	1497.80371	53.49706	625.41650	1676.97632	42.53028	592.33624	1583.17712	133.72021	676.90039	1615.99622	110.70348	573.71783	1583.95740	478.65109	681.01788	1583.48840	488.47638	677.77069	1533.78711	867.67572	526.59528	1576.09875	1708.98096	438.12183	1493.11670	1561.48584	595.07849	1486.51880	1555.79565	516.08209	1491.50574	1391.84534	523.26843	1611.38049	1470.98462	400.62543	1491.09778	1104.22937	627.84991	1493.66895	1098.02490	514.49036	1457.99817	1236.86743	403.00470	1454.36829	966.32281	624.04523	1468.28430	972.89569	446.25854	1629.77222	999.21667	567.46582	1631.78162	1001.99292	518.73712	1675.58289	1258.10291	514.25781	1648.48682	1133.95532	515.05756	1631.79956	1077.67871	508.71167	1631.58057	1031.47473	508.06573	1641.86890	993.50354	506.21194	1668.40320	893.51727	
